              <svg xmlns="http://www.w3.org/2000/svg" width="26" height="28" viewBox="0 0 26 28" fill="none">
                <path
                  d="M25.3437 0.767C25.2434 0.317 24.8647 0 24.4325 0C24.4306 0 24.4287 0 24.4269 0C19.4891 0.033 7.48155 0.916 2.63374 8.38C0.115613 12.258 -0.100949 17.293 1.98968 23.345C2.00561 23.392 2.03843 23.424 2.05999 23.467C1.3128 25.44 1.02311 26.753 1.01561 26.79C0.906863 27.33 1.2303 27.862 1.73655 27.978C1.80218 27.993 1.8678 28 1.93343 28C2.36561 28 2.75468 27.679 2.84936 27.21C2.86905 27.108 5.2578 16.837 13.7028 10.832C14.1341 10.526 14.2503 9.905 13.9625 9.445C13.6747 8.985 13.0934 8.86 12.6622 9.168C7.87343 12.573 4.92405 17.176 3.18968 20.824C1.94843 16.246 2.27374 12.447 4.17593 9.519C7.91936 3.755 16.7984 2.365 22.1581 2.071C21.005 3.872 19.745 7.174 19.745 13C19.745 16.12 18.9153 18.522 17.2803 20.14C14.6591 22.731 10.4009 22.974 7.28655 22.724C6.76905 22.679 6.31999 23.095 6.28061 23.646C6.24124 24.196 6.62843 24.676 7.14405 24.718C7.76749 24.769 8.43311 24.8 9.12499 24.8C12.2956 24.8 15.9941 24.137 18.5544 21.606C20.5887 19.595 21.62 16.7 21.62 13.001C21.62 3.902 24.8356 1.905 24.8516 1.896C25.2416 1.687 25.4459 1.219 25.3437 0.767Z"
                  fill="white" />
              </svg>
