<svg width="103" height="20" viewBox="0 0 103 20" fill="none" xmlns="http://www.w3.org/2000/svg">
<path d="M1.78992 17.4946C0.902539 16.1682 0.478241 14.5815 0.583977 12.9849V6.46801C0.472038 4.85963 0.889922 3.259 1.77269 1.91488C2.5709 0.877976 3.93476 0.36242 5.86427 0.368212C7.79377 0.374005 9.10021 0.828738 9.78358 1.73241C10.6168 2.85226 11.0234 4.23687 10.9292 5.63385V7.16314H7.36308V5.50351C7.35827 5.06683 7.32084 4.63114 7.2511 4.20014C7.20799 3.88812 7.06596 3.59855 6.84625 3.37466C6.71061 3.25733 6.55315 3.16847 6.38306 3.11326C6.21297 3.05806 6.03367 3.03763 5.85565 3.05316C5.6 3.01468 5.3388 3.05659 5.10761 3.1732C4.87641 3.28981 4.68645 3.47545 4.56357 3.70485C4.33709 4.31507 4.2374 4.96575 4.27071 5.61647V13.8886C4.23141 14.5436 4.34653 15.1987 4.60665 15.8002C4.73093 16.0172 4.91535 16.1928 5.13724 16.3055C5.35914 16.4182 5.60884 16.463 5.85565 16.4345C6.09818 16.4691 6.34535 16.4255 6.5619 16.3101C6.77846 16.1946 6.95333 16.0131 7.06159 15.7915C7.26996 15.1801 7.36059 14.5342 7.32862 13.8886V12.1507H10.8948V13.654C10.9997 15.0715 10.6263 16.4832 9.83526 17.6597C9.07724 18.6155 7.76793 19.0847 5.90734 19.0847C4.04675 19.0847 2.59101 18.5633 1.78992 17.4946Z" fill="#111111"/>
<path d="M15.788 0.620117H19.871L23.3166 18.8674H19.9227L19.3111 14.8356H16.4513L15.7622 18.8413H12.3167L15.788 0.620117ZM18.9321 12.5417L17.8468 5.208L16.77 12.5417H18.9321Z" fill="#111111"/>
<path d="M25.9615 3.36589H23.1707V0.620117H32.4047V3.36589H29.6483V18.8413H25.9529L25.9615 3.36589Z" fill="#111111"/>
<path d="M39.6498 0.620117H46.6528V2.51436H42.1736V8.53595H45.8087V10.3346H42.1736V17.0166H46.6959V18.8413H39.6498V0.620117Z" fill="#444444"/>
<path d="M48.7292 0.620117H50.452L55.6203 12.7241V0.620117H57.7221V18.8674H56.1113L50.943 6.42448V18.8413H48.8068L48.7292 0.620117Z" fill="#444444"/>
<path d="M60.505 0.620117H67.4995V2.51436H63.0203V8.53595H66.6898V10.3346H63.0547V17.0166H67.5511V18.8413H60.505V0.620117Z" fill="#444444"/>
<path d="M69.5758 0.620192H73.2108C74.6434 0.503912 76.0699 0.907587 77.2335 1.75847C78.0949 2.51443 78.517 3.74829 78.517 5.46006C78.517 7.77717 77.7733 9.1935 76.286 9.70906L78.8701 18.8414H76.4238L74.055 10.2912H72.0997V18.8414H69.5758V0.620192ZM73.0213 8.44044C73.8512 8.52143 74.681 8.28582 75.3471 7.78006C75.6178 7.4569 75.8201 7.08129 75.9416 6.67634C76.063 6.27138 76.1011 5.84565 76.0534 5.4253C76.0707 4.83579 75.9862 4.24774 75.8036 3.68747C75.7295 3.48088 75.6152 3.29138 75.4672 3.13019C75.3192 2.969 75.1407 2.83939 74.9422 2.74904C74.383 2.51761 73.78 2.41376 73.1764 2.44492H72.0652V8.4752L73.0213 8.44044Z" fill="#444444"/>
<path d="M81.9114 17.4944C81.088 16.0925 80.7065 14.4713 80.8174 12.8457V6.76329C80.7877 5.58952 80.9329 4.41791 81.2481 3.28762C81.4969 2.43787 82.0256 1.69916 82.7469 1.19353C83.6178 0.664143 84.6258 0.409928 85.6412 0.463645C86.2979 0.400638 86.9605 0.483079 87.5824 0.705203C88.2043 0.927328 88.7706 1.28378 89.2418 1.74964C90.0682 2.9175 90.4587 4.34249 90.3443 5.77273V6.45048H87.9755V5.88568C87.9917 5.21016 87.9397 4.53473 87.8205 3.8698C87.742 3.44366 87.5085 3.06247 87.1658 2.80103C86.7187 2.53483 86.2024 2.41068 85.6842 2.44478C85.1216 2.39622 84.5623 2.57077 84.1251 2.93137C83.7679 3.2733 83.5344 3.72602 83.4619 4.21736C83.3527 4.93312 83.3038 5.65689 83.3154 6.38097V13.1498C83.247 14.1784 83.4212 15.2087 83.8236 16.1563C84.0574 16.4477 84.3541 16.6813 84.691 16.8394C85.028 16.9974 85.3963 17.0756 85.7678 17.0681C86.1393 17.0605 86.5042 16.9674 86.8346 16.7958C87.165 16.6242 87.4521 16.3787 87.674 16.0781C88.0891 15.0759 88.269 13.9904 88.1995 12.9065V11.6205H85.9082V9.82188H90.4735V18.8412H88.9144L88.6646 16.7471C88.4672 17.4429 88.0423 18.0507 87.4589 18.472C86.8756 18.8932 86.1682 19.1029 85.4517 19.0672C84.778 19.1271 84.1002 19.0143 83.4813 18.7394C82.8624 18.4644 82.3224 18.0362 81.9114 17.4944V17.4944Z" fill="#444444"/>
<path d="M95.7114 12.4113L91.8093 0.620117H94.1523L96.9173 9.41356L99.6393 0.620117H102.008L98.1319 12.4113V18.8413H95.72L95.7114 12.4113Z" fill="#444444"/>
</svg>
