<svg width="118" height="22" viewBox="0 0 118 22" fill="none" xmlns="http://www.w3.org/2000/svg">
<path d="M1.42068 19.551C0.390506 18.0368 -0.10207 16.2255 0.0206814 14.4029V6.9634C-0.10927 5.12733 0.37586 3.3001 1.40068 1.76569C2.32735 0.581986 3.91068 -0.00655776 6.15068 5.51073e-05C8.39068 0.00666797 9.90735 0.525778 10.7007 1.55738C11.668 2.83578 12.14 4.4164 12.0307 6.01115V7.75695H7.89068V5.86236C7.8851 5.36386 7.84164 4.86649 7.76068 4.37447C7.71062 4.01828 7.54575 3.68771 7.29068 3.43213C7.13322 3.29819 6.95041 3.19674 6.75295 3.13372C6.55549 3.0707 6.34733 3.04738 6.14068 3.06512C5.84388 3.02118 5.54065 3.06903 5.27225 3.20215C5.00385 3.33526 4.78332 3.54718 4.64068 3.80906C4.37774 4.50567 4.26202 5.24847 4.30068 5.99131V15.4345C4.25506 16.1822 4.38871 16.9301 4.69068 17.6167C4.83496 17.8644 5.04906 18.0649 5.30666 18.1936C5.56426 18.3222 5.85414 18.3734 6.14068 18.3408C6.42223 18.3803 6.70918 18.3306 6.96058 18.1988C7.21197 18.067 7.41499 17.8598 7.54068 17.6068C7.78257 16.9089 7.88779 16.1716 7.85067 15.4345V13.4506H11.9907V15.1667C12.1126 16.7849 11.6791 18.3965 10.7607 19.7395C9.88068 20.8306 8.36068 21.3662 6.20068 21.3662C4.04068 21.3662 2.35068 20.7711 1.42068 19.551Z" fill="#111111"/>
<path d="M17.6714 0.287598H22.4114L26.4114 21.1181H22.4714L21.7614 16.5156H18.4414L17.6414 21.0884H13.6414L17.6714 0.287598ZM21.3214 13.8969L20.0614 5.52499L18.8114 13.8969H21.3214Z" fill="#111111"/>
<path d="M29.4819 3.4221H26.2419V0.287598H36.9619V3.4221H33.7619V21.0884H29.4719L29.4819 3.4221Z" fill="#111111"/>
<path d="M45.373 0.287598H53.5031V2.45001H48.303V9.32408H52.523V11.3774H48.303V19.0053H53.553V21.0884H45.373V0.287598Z" fill="#444444"/>
<path d="M55.9136 0.287598H57.9136L63.9136 14.1052V0.287598H66.3536V21.1181H64.4836L58.4836 6.91369V21.0884H56.0036L55.9136 0.287598Z" fill="#444444"/>
<path d="M69.5842 0.287598H77.7042V2.45001H72.5042V9.32408H76.7642V11.3774H72.5442V19.0053H77.7642V21.0884H69.5842V0.287598Z" fill="#444444"/>
<path d="M80.1147 0.287763H84.3347C85.9978 0.15502 87.6539 0.615844 89.0047 1.58719C90.0047 2.45017 90.4947 3.85871 90.4947 5.81281C90.4947 8.45796 89.6314 10.0748 87.9047 10.6634L90.9047 21.0885H88.0647L85.3147 11.3279H83.0447V21.0885H80.1147V0.287763ZM84.1147 9.21513C85.0781 9.30759 86.0414 9.03862 86.8147 8.46127C87.129 8.09235 87.3639 7.66357 87.5049 7.20128C87.6459 6.739 87.6901 6.25299 87.6347 5.77314C87.6548 5.10017 87.5567 4.42887 87.3447 3.78928C87.2588 3.55344 87.126 3.33712 86.9542 3.15311C86.7824 2.96909 86.5752 2.82114 86.3447 2.71799C85.6956 2.4538 84.9955 2.33525 84.2947 2.37082H83.0047V9.25481L84.1147 9.21513Z" fill="#444444"/>
<path d="M94.4354 19.551C93.4795 17.9506 93.0366 16.0999 93.1654 14.2441V7.30062C93.1309 5.96068 93.2995 4.6232 93.6654 3.3329C93.9542 2.36285 94.568 1.51955 95.4054 0.942351C96.4164 0.338012 97.5866 0.0478077 98.7654 0.109129C99.5279 0.0372026 100.297 0.131314 101.019 0.384886C101.741 0.638457 102.398 1.04537 102.945 1.57719C103.905 2.91038 104.358 4.5371 104.225 6.16982V6.94353H101.475V6.29877C101.494 5.52761 101.434 4.75656 101.295 3.99749C101.204 3.51102 100.933 3.07587 100.535 2.77742C100.016 2.47353 99.4169 2.33181 98.8154 2.37073C98.1622 2.3153 97.5129 2.51456 97.0054 2.92621C96.5907 3.31655 96.3196 3.83336 96.2354 4.39427C96.1087 5.21135 96.0519 6.03759 96.0654 6.86417V14.5913C95.986 15.7655 96.1882 16.9416 96.6554 18.0234C96.9267 18.356 97.2712 18.6228 97.6624 18.8032C98.0535 18.9836 98.4811 19.0729 98.9124 19.0643C99.3437 19.0557 99.7673 18.9494 100.151 18.7535C100.534 18.5576 100.868 18.2773 101.125 17.9341C101.607 16.79 101.816 15.5509 101.735 14.3136V12.8455H99.0754V10.7922H104.375V21.0884H102.565L102.275 18.6979C102.046 19.4921 101.553 20.186 100.876 20.6669C100.198 21.1477 99.3772 21.3872 98.5454 21.3464C97.7633 21.4147 96.9765 21.286 96.258 20.9722C95.5395 20.6583 94.9125 20.1694 94.4354 19.551V19.551Z" fill="#444444"/>
<path d="M110.456 13.7481L105.926 0.287598H108.646L111.856 10.3259L115.016 0.287598H117.766L113.266 13.7481V21.0884H110.466L110.456 13.7481Z" fill="#444444"/>
</svg>
