<svg width="101" height="18" viewBox="0 0 101 18" fill="none" xmlns="http://www.w3.org/2000/svg">
<g clip-path="url(#clip0_15_1748)">
<path d="M1.26449 16.5385C0.36955 15.2762 -0.0747041 13.7627 1.02076e-05 12.2308V5.84615C-0.108365 4.29774 0.308071 2.75746 1.18546 1.46154C2.05478 0.461538 3.39829 0 5.37403 0C7.34978 0 8.61425 0.461538 9.40455 1.30769C10.2626 2.37941 10.6846 3.72136 10.59 5.07692V6.61539H6.71754V4.84615C6.74881 4.32289 6.66808 3.799 6.48045 3.30769C6.38016 3.10938 6.2212 2.9448 6.02403 2.83513C5.82686 2.72547 5.60049 2.67572 5.37403 2.69231C4.82082 2.69231 4.42568 2.84615 4.26762 3.23077C4.08883 3.77733 4.00862 4.34988 4.03053 4.92308V13.1538C3.98879 13.71 4.0978 14.267 4.34665 14.7692C4.5047 15.1538 4.89985 15.3077 5.45306 15.3077C6.00627 15.3077 6.32239 15.1538 6.48045 14.7692C6.66013 14.2494 6.74049 13.7019 6.71754 13.1538V11.3077H10.59V12.8462C10.6704 14.2238 10.2508 15.5852 9.40455 16.6923C8.61425 17.6154 7.27075 18.0769 5.37403 18.0769C3.47732 18 2.05478 17.5385 1.26449 16.5385Z" fill="#111111"/>
<path d="M15.2527 0.230713H19.7574L23.0767 17.7692H19.4413L18.8091 14.0769H16.2011L15.5689 17.7692H11.8545L15.2527 0.230713ZM18.493 11.7692L17.5446 4.92302L16.5962 11.7692H18.493Z" fill="#111111"/>
<path d="M25.8427 3.15379H23.1557V0.230713H32.5602V3.07687H29.8732V17.7692H25.8427V3.15379Z" fill="#111111"/>
<path d="M39.752 0.230713H46.7066V2.07687H42.2019V7.8461H45.8372V9.61533H42.2019V16.0769H46.7066V17.8461H39.6729V0.230713H39.752Z" fill="#111111"/>
<path d="M48.7613 0.230713H50.5L55.6369 11.8461V0.230713H57.6917V17.7692H56.1111L50.8951 5.76917V17.7692H48.7613V0.230713Z" fill="#111111"/>
<path d="M60.0626 0.230713H67.0172V2.07687H62.5125V7.8461H66.1479V9.61533H62.5125V16.0769H67.0172V17.8461H60.0626V0.230713Z" fill="#111111"/>
<path d="M69.072 0.2307H72.7074C74.1375 0.134548 75.5587 0.514283 76.7379 1.30762C77.6072 1.99993 78.0024 3.2307 78.0024 4.84608C78.0024 7.07685 77.2911 8.46147 75.7895 8.92301L78.3185 17.6922H75.8686L73.4977 9.46147H71.5219V17.6922H68.993V0.2307H69.072ZM72.5493 7.76916C73.364 7.83451 74.1761 7.61645 74.8412 7.15378C75.3154 6.76916 75.5524 5.99993 75.5524 4.84608C75.5743 4.27289 75.4941 3.70033 75.3154 3.15378C75.1375 2.76159 74.832 2.43723 74.446 2.2307C73.9017 1.98927 73.3042 1.88353 72.7074 1.92301H71.601V7.69224H72.5493V7.76916Z" fill="#111111"/>
<path d="M81.1635 16.4614C80.342 15.1165 79.9564 13.5616 80.0571 11.9999V6.15374C80.0376 5.039 80.1705 3.92669 80.4522 2.84605C80.7167 2.03852 81.2437 1.33658 81.9538 0.846049C82.8362 0.337645 83.8542 0.0966264 84.8779 0.153741C86.5375 0.153741 87.723 0.538357 88.4342 1.38451C89.2524 2.50181 89.6438 3.86227 89.5407 5.23067V5.84605H87.1698V5.30759C87.1733 4.66335 87.1205 4.02 87.0117 3.38451C86.9451 2.98293 86.7177 2.62338 86.3795 2.38451C85.9353 2.10072 85.4081 1.96568 84.8779 1.9999C84.3112 1.96455 83.7504 2.12833 83.2973 2.46143C83.1114 2.61391 82.9595 2.80171 82.8507 3.01334C82.742 3.22497 82.6788 3.45597 82.6651 3.6922C82.5609 4.37988 82.5081 5.07401 82.507 5.76913V12.3076C82.4488 13.3037 82.6104 14.3005 82.9812 15.2307C83.2973 15.846 83.9295 16.0768 84.8779 16.0768C85.2523 16.1222 85.6322 16.0588 85.9697 15.8946C86.3072 15.7303 86.5873 15.4726 86.7746 15.1537C87.1922 14.181 87.3812 13.1298 87.3278 12.0768V10.8461H85.036V9.07682H89.6197V17.7691H88.0391L87.802 15.7691C87.5948 16.4394 87.1634 17.023 86.5763 17.4272C85.9892 17.8314 85.2801 18.033 84.5618 17.9999C83.9088 18.0373 83.2564 17.9163 82.6633 17.6478C82.0702 17.3793 81.5548 16.9716 81.1635 16.4614V16.4614Z" fill="#111111"/>
<path d="M94.6776 11.6153L90.8052 0.307617H93.1761L95.9421 8.76916L98.6291 0.307617H101L97.1276 11.6153V17.7692H94.7567V11.6153H94.6776Z" fill="#111111"/>
</g>
<defs>
<clipPath id="clip0_15_1748">
<rect width="101" height="18" fill="white"/>
</clipPath>
</defs>
</svg>
