<svg width="61" height="51" viewBox="0 0 61 51" fill="none" xmlns="http://www.w3.org/2000/svg">
<path d="M51.5819 19.8539C50.0969 16.2649 47.7053 13.1311 44.6455 10.7648C41.5858 8.39859 37.9646 6.88251 34.143 6.36771C30.3214 5.8529 26.4327 6.35734 22.8646 7.83075C19.2965 9.30417 16.1734 11.6951 13.8068 14.7653C11.4401 17.8354 9.91247 21.4776 9.37606 25.3289C8.83965 29.1801 9.31322 33.1059 10.7496 36.715C12.1859 40.3241 14.5349 43.4905 17.5624 45.8986C20.5899 48.3067 24.1903 49.8725 28.0046 50.4398C27.5049 48.6237 26.9967 46.6165 26.5487 44.4877C27.8519 45.3404 29.2235 46.0815 30.6491 46.7034V46.7034C30.6491 46.7034 30.7525 48.5803 30.8903 50.6744C32.4308 50.7012 33.9697 50.5643 35.4818 50.266C35.4427 50.0476 35.4427 49.824 35.4818 49.6056C35.7316 47.9807 36.4207 45.0525 36.5585 43.1669C37.552 42.2296 38.3948 41.142 39.0567 39.9433V39.9433L39.005 40.3256C38.5312 44.0272 37.5406 47.9807 36.9376 49.0756C36.7424 49.438 36.5021 49.7738 36.2226 50.0748C39.3408 49.337 42.2626 47.9239 44.7854 45.9335C47.3083 43.9432 49.3718 41.4232 50.8329 38.5483C52.294 35.6733 53.1178 32.5123 53.2472 29.2842C53.3765 26.0562 52.8083 22.8384 51.5819 19.8539V19.8539ZM50.3156 23.1471C49.9365 23.5207 49.1526 23.7727 49.0234 22.6431C48.8942 21.5135 48.8598 20.7228 48.8598 20.7228C48.8598 20.7228 47.1972 17.7424 46.577 17.7077C45.9567 17.6729 41.5548 20.7228 40.3919 22.0523C39.384 23.1732 39.1859 23.095 39.1859 25.0674C39.1859 26.5532 39.3754 32.1665 39.272 36.4589L32.2514 38.3444C30.0447 38.9833 27.8006 39.4824 25.5323 39.839L24.6708 34.7732H24.5502L22.3364 23.3296C22.3364 23.3296 19.0543 22.0783 17.8483 21.7394C17.282 21.4896 16.6567 21.4083 16.0462 21.5053C15.4356 21.6023 14.8653 21.8735 14.4026 22.2869C13.9305 22.7038 13.5531 23.2184 13.2959 23.7957C13.0388 24.3729 12.9079 24.9993 12.9123 25.6322C13.0944 26.036 13.233 26.4584 13.3258 26.8921C13.3689 27.3092 12.2921 27.2658 11.603 27.2658C10.9138 27.2658 10.8104 26.0145 11.3531 24.546C11.7765 23.4169 12.3013 22.3291 12.9209 21.2963C13.387 20.3737 13.9881 19.5272 14.7041 18.7851C14.7041 18.7851 14.8247 18.4897 15.7809 18.5766C16.7371 18.6635 22.0521 18.9502 22.0521 18.9502L22.0952 16.9778C27.8722 16.1732 33.6987 15.7841 39.5305 15.8134C39.5305 16.3435 39.5305 16.8735 39.5305 17.4036C41.7394 16.3867 44.1179 15.7973 46.5425 15.6657C46.6722 15.6624 46.8008 15.6916 46.9165 15.7508C47.0323 15.8099 47.1317 15.8971 47.2058 16.0046C47.4987 16.3782 49.2819 18.6113 49.4886 18.9328C50.0677 19.7676 50.5942 20.6382 51.065 21.5396C50.9036 22.1103 50.6504 22.6504 50.3156 23.1384V23.1471Z" fill="#FDC305"/>
<path d="M48.6363 17.8295C49.0411 18.3508 49.3943 18.8113 49.4977 18.9504C50.0768 19.7851 50.6033 20.6558 51.0741 21.5571C50.9102 22.1091 50.6601 22.6312 50.3333 23.1038C49.9543 23.4774 49.1704 23.7294 49.0411 22.5998C48.9119 21.4702 48.8602 20.723 48.8602 20.723C48.8602 20.723 47.1977 17.7426 46.5775 17.7078C45.9572 17.6731 41.5553 20.723 40.3924 22.0524C39.3845 23.1733 39.1864 23.0951 39.1864 25.0675C39.1864 26.3709 39.3328 30.8458 39.2984 34.8255C40.8576 34.9993 43.149 35.4337 43.8381 36.459C43.8381 36.459 43.5883 30.2202 50.5659 33.4873C50.5659 33.4873 50.8071 24.9806 60.4378 27.1616C57.1639 23.2844 53.1505 20.1108 48.6363 17.8295V17.8295Z" fill="#F06351"/>
<path d="M39.5655 15.8136C39.6005 10.9987 39.1968 6.19077 38.3595 1.45041C38.3595 1.45041 38.2303 0.32082 37.61 1.24187C37.0982 2.34298 36.7499 3.51409 36.5763 4.71754C32.8938 4.47921 29.1975 4.57809 25.5328 5.01297C24.8264 2.62345 23.6204 1.5373 23.0433 1.82405C22.4661 2.11079 22.3972 4.67409 22.3972 4.67409L22.1129 16.978C27.8957 16.1725 33.7279 15.7834 39.5655 15.8136V15.8136Z" fill="#F06351"/>
<path d="M39.0651 39.9433C39.1771 39.0136 39.2374 37.7797 39.2718 36.4155L32.2515 38.3011C30.0459 38.9545 27.8019 39.4682 25.5327 39.8391L26.4889 44.1836C26.4889 44.2792 26.4889 44.3748 26.5492 44.4704C27.8522 45.323 29.2237 46.0642 30.6494 46.6861C32.7328 45.6815 34.7171 44.4799 36.5757 43.0975V43.1496C37.5646 42.2169 38.4044 41.1353 39.0651 39.9433V39.9433Z" fill="#E55645"/>
<path d="M27.5657 13.0938C27.5226 13.0069 28.4271 13.6847 28.7803 13.8932C29.1334 14.1018 29.3057 14.2582 29.3057 14.4059C29.3057 14.5536 29.0817 14.7013 28.7716 14.7013C28.4615 14.7013 27.9792 14.5971 27.9103 14.4754C27.8413 14.3538 28.4271 14.4754 28.72 14.4754H28.9698C28.4394 14.084 27.9667 13.6189 27.5657 13.0938Z" fill="black"/>
<path d="M34.0264 13.1895C34.0264 13.1895 33.165 14.3017 33.0875 14.3539C33.01 14.406 32.9411 14.6493 33.2512 14.6058C33.6072 14.5522 33.9585 14.4709 34.3021 14.3625C34.3968 14.3104 34.3624 14.1888 34.1987 14.2061C34.035 14.2235 33.613 14.2496 33.3373 14.3017L34.0695 13.1982C34.0695 13.1982 34.0953 13.0939 34.0264 13.1895Z" fill="black"/>
<path d="M31.3215 18.4985C31.7208 18.321 32.0509 18.0156 32.2605 17.6296C32.5016 17.0561 32.2605 16.8389 31.8814 16.7607C31.36 16.6647 30.8219 16.7702 30.374 17.0561C30.0381 17.3776 30.0811 17.6904 30.374 17.925C30.665 18.1552 30.9833 18.3478 31.3215 18.4985V18.4985Z" fill="black"/>
<path d="M31.0113 19.5934C30.9124 19.7904 30.7781 19.9672 30.6151 20.1147C30.3697 20.3138 30.0682 20.4294 29.7537 20.4449C29.2794 20.4919 28.8052 20.3552 28.4272 20.0626C28.2535 19.9601 28.099 19.8278 27.9706 19.6716C27.8845 19.5769 27.7785 19.5027 27.6605 19.4543C27.6605 19.4543 28.3066 23.0256 29.8743 23.5991C31.442 24.1726 31.7349 22.9387 31.7779 22.6085C31.8304 21.6196 31.5841 20.6379 31.0716 19.7932C31.0716 19.5325 31.0544 19.7063 31.0113 19.5934Z" fill="#F06351"/>
<path d="M29.5469 20.5839C29.1438 20.5255 28.7566 20.3852 28.4087 20.1717C28.0608 19.9581 27.7594 19.6757 27.5226 19.3414C27.5015 19.3175 27.4897 19.2865 27.4897 19.2545C27.4897 19.2224 27.5015 19.1915 27.5226 19.1676C27.5339 19.156 27.5473 19.1468 27.5621 19.1406C27.5769 19.1343 27.5927 19.1311 27.6088 19.1311C27.6248 19.1311 27.6407 19.1343 27.6555 19.1406C27.6703 19.1468 27.6837 19.156 27.6949 19.1676C27.9081 19.4692 28.1785 19.7252 28.4905 19.9206C28.8025 20.116 29.1499 20.247 29.5124 20.3059C29.7993 20.2841 30.0769 20.194 30.3225 20.043C30.5681 19.8919 30.7746 19.6842 30.9251 19.437L31.0457 19.2719L31.1319 19.463C31.1319 19.463 31.4592 20.1234 31.9932 20.1582C32.5273 20.1929 32.9063 19.7932 33.3973 19.0372C33.4156 19.0096 33.444 18.9904 33.4763 18.9839C33.5086 18.9774 33.5422 18.9841 33.5696 19.0025C33.597 19.0209 33.616 19.0496 33.6225 19.0822C33.6289 19.1148 33.6223 19.1486 33.604 19.1763C33.0298 20.0278 32.4871 20.4362 31.976 20.4014C31.7785 20.375 31.5893 20.3044 31.4224 20.1946C31.2554 20.0849 31.115 19.9388 31.0113 19.7671C30.8427 20.0045 30.6238 20.201 30.3705 20.3423C30.1172 20.4836 29.8358 20.5662 29.5469 20.5839Z" fill="black"/>
<path d="M31.2352 32.2796C33.0192 32.2796 34.4654 30.8207 34.4654 29.0211C34.4654 27.2215 33.0192 25.7627 31.2352 25.7627C29.4512 25.7627 28.005 27.2215 28.005 29.0211C28.005 30.8207 29.4512 32.2796 31.2352 32.2796Z" fill="#FDC305"/>
<path d="M35.5163 26.3709L32.8201 27.5092L33.8107 22.6172L27.3503 31.0978L30.0465 29.9595L29.0559 34.8602L35.5163 26.3709ZM29.1506 29.6989L32.734 24.998L32.0363 28.4737L33.7591 27.7612L30.1498 32.4707L30.8476 28.995L29.1506 29.6989Z" fill="#111111"/>
<path d="M27.9447 28.4215C28.4776 28.4215 28.9095 27.9858 28.9095 27.4483C28.9095 26.9108 28.4776 26.4751 27.9447 26.4751C27.4119 26.4751 26.98 26.9108 26.98 27.4483C26.98 27.9858 27.4119 28.4215 27.9447 28.4215Z" fill="#111111"/>
<path d="M33.5612 31.9493C33.9371 31.9493 34.2417 31.642 34.2417 31.2629C34.2417 30.8837 33.9371 30.5764 33.5612 30.5764C33.1854 30.5764 32.8807 30.8837 32.8807 31.2629C32.8807 31.642 33.1854 31.9493 33.5612 31.9493Z" fill="#111111"/>
<path d="M34.3883 30.0638C34.5548 30.0638 34.6898 29.9277 34.6898 29.7597C34.6898 29.5917 34.5548 29.4556 34.3883 29.4556C34.2218 29.4556 34.0868 29.5917 34.0868 29.7597C34.0868 29.9277 34.2218 30.0638 34.3883 30.0638Z" fill="#111111"/>
<path d="M39.5224 17.3862C37.9674 18.8002 36.5029 20.3122 35.1377 21.9133C33.7778 23.5028 32.2433 24.9312 30.5635 26.171C30.374 25.7104 29.1594 24.8502 29.1594 24.8502C29.1594 24.8502 26.4545 22.982 24.6799 21.5136C23.7207 20.7076 22.8169 19.8367 21.9751 18.9068L20.2522 18.8112C22.7392 22.4756 26.3826 25.1829 30.5893 26.4925C31.3302 26.3708 33.4148 24.8676 34.974 23.6424C36.8187 22.06 38.5461 20.3437 40.1426 18.5071C40.5717 17.9927 40.9044 17.4038 41.1246 16.7693C40.1426 17.0995 39.5224 17.3862 39.5224 17.3862Z" fill="#F06351"/>
<path d="M22.3368 23.3297C22.3368 23.3297 19.0548 22.0784 17.8488 21.7395C17.2825 21.4896 16.6572 21.4084 16.0467 21.5054C15.4361 21.6024 14.8658 21.8736 14.4031 22.287C13.931 22.7039 13.5536 23.2185 13.2964 23.7957C13.0393 24.373 12.9084 24.9994 12.9128 25.6323C13.0949 26.0361 13.2335 26.4585 13.3263 26.8922C13.3694 27.3093 12.2926 27.2658 11.6034 27.2658C10.9143 27.2658 10.8109 26.0146 11.3536 24.5461C11.777 23.417 12.3018 22.3292 12.9214 21.2964C8.22664 23.7641 0 29.4642 0 29.4642C2.35316 29.3211 4.71429 29.3909 7.0551 29.6727C11.5776 30.1333 11.3622 33.7306 11.3622 33.7306C12.9529 33.2882 14.574 32.9659 16.2121 32.7661C18.0383 32.6444 18.1675 34.6082 18.1675 34.6082L18.6241 37.9622C19.3173 37.2056 20.0819 36.5189 20.9069 35.9116C21.9703 35.0529 23.3243 34.6475 24.6799 34.782V34.782L22.3368 23.3297Z" fill="#F06351"/>
</svg>
