<svg width="71" height="59" viewBox="0 0 71 59" fill="none" xmlns="http://www.w3.org/2000/svg">
<path d="M59.8824 23.8063C58.1584 19.7091 55.382 16.1317 51.8298 13.4304C48.2777 10.7292 44.0738 8.9985 39.6372 8.41081C35.2007 7.82313 30.6862 8.39898 26.5439 10.081C22.4016 11.763 18.776 14.4924 16.0285 17.9972C13.281 21.502 11.5076 25.6599 10.8848 30.0563C10.2621 34.4528 10.8119 38.9344 12.4794 43.0544C14.1469 47.1745 16.8739 50.7891 20.3885 53.5382C23.9032 56.2872 28.0829 58.0746 32.511 58.7222C31.931 56.6491 31.341 54.3577 30.8209 51.9275C32.3338 52.9008 33.9261 53.7469 35.5812 54.4569V54.4569C35.5812 54.4569 35.7012 56.5995 35.8612 58.99C37.6495 59.0206 39.4361 58.8643 41.1914 58.5238C41.1461 58.2745 41.1461 58.0192 41.1914 57.7699C41.4815 55.915 42.2815 52.5722 42.4415 50.4197C43.5948 49.3497 44.5733 48.1082 45.3417 46.7397V46.7397L45.2816 47.1761C44.7316 51.4017 43.5816 55.915 42.8815 57.1649C42.6549 57.5786 42.376 57.9619 42.0515 58.3056C45.6715 57.4633 49.0634 55.8501 51.9923 53.578C54.9211 51.3059 57.3166 48.4291 59.0129 45.1472C60.7091 41.8653 61.6655 38.2567 61.8156 34.5716C61.9658 30.8866 61.3061 27.2132 59.8824 23.8063V23.8063ZM58.4123 27.5657C57.9723 27.9922 57.0622 28.2799 56.9122 26.9903C56.7622 25.7008 56.7222 24.7982 56.7222 24.7982C56.7222 24.7982 54.7921 21.3959 54.0721 21.3562C53.352 21.3165 48.2418 24.7982 46.8917 26.3158C45.7217 27.5954 45.4917 27.5062 45.4917 29.7578C45.4917 31.454 45.7117 37.8619 45.5917 42.762L37.4413 44.9145C34.8795 45.6438 32.2743 46.2136 29.6409 46.6206L28.6408 40.8377H28.5008L25.9307 27.774C25.9307 27.774 22.1205 26.3456 20.7204 25.9587C20.063 25.6735 19.3371 25.5807 18.6283 25.6915C17.9195 25.8022 17.2574 26.1118 16.7202 26.5837C16.1722 27.0596 15.734 27.6471 15.4355 28.3061C15.1369 28.9651 14.985 29.6801 14.9902 30.4026C15.2015 30.8636 15.3625 31.3458 15.4702 31.8409C15.5202 32.317 14.2701 32.2674 13.4701 32.2674C12.67 32.2674 12.55 30.839 13.1801 29.1627C13.6716 27.8737 14.2808 26.6319 15.0002 25.4529C15.5412 24.3996 16.2391 23.4333 17.0703 22.5862C17.0703 22.5862 17.2103 22.2489 18.3203 22.3481C19.4304 22.4473 25.6007 22.7746 25.6007 22.7746L25.6507 20.523C32.3574 19.6045 39.1214 19.1603 45.8917 19.1938C45.8917 19.7989 45.8917 20.4039 45.8917 21.009C48.4561 19.8483 51.2174 19.1753 54.0321 19.0251C54.1827 19.0214 54.3319 19.0547 54.4663 19.1223C54.6007 19.1898 54.7161 19.2893 54.8021 19.412C55.1421 19.8385 57.2122 22.3878 57.4523 22.7548C58.1245 23.7078 58.7357 24.7016 59.2823 25.7306C59.095 26.3821 58.8011 26.9987 58.4123 27.5557V27.5657Z" fill="#FDC305"/>
<path d="M56.4627 21.4952C56.9328 22.0903 57.3428 22.616 57.4628 22.7748C58.135 23.7277 58.7463 24.7216 59.2929 25.7505C59.1026 26.3807 58.8123 26.9767 58.4328 27.5162C57.9928 27.9427 57.0828 28.2304 56.9328 26.9409C56.7827 25.6513 56.7227 24.7983 56.7227 24.7983C56.7227 24.7983 54.7926 21.396 54.0726 21.3563C53.3526 21.3166 48.2423 24.7983 46.8923 26.3159C45.7222 27.5955 45.4922 27.5063 45.4922 29.7579C45.4922 31.2458 45.6622 36.3543 45.6222 40.8973C47.4323 41.0957 50.0924 41.5917 50.8925 42.7621C50.8925 42.7621 50.6024 35.6401 58.7028 39.3697C58.7028 39.3697 58.9829 29.6587 70.1634 32.1485C66.3627 27.7223 61.7034 24.0994 56.4627 21.4952V21.4952Z" fill="#F06351"/>
<path d="M45.9324 19.1938C45.9731 13.6973 45.5044 8.20868 44.5323 2.79723C44.5323 2.79723 44.3823 1.50772 43.6623 2.55916C43.0681 3.81616 42.6638 5.15306 42.4622 6.52688C38.1872 6.25481 33.8961 6.36769 29.6416 6.86414C28.8215 4.13633 27.4215 2.89642 26.7514 3.22376C26.0814 3.55109 26.0014 6.47729 26.0014 6.47729L25.6714 20.523C32.3847 19.6036 39.1555 19.1594 45.9324 19.1938V19.1938Z" fill="#F06351"/>
<path d="M45.3514 46.7396C45.4814 45.6783 45.5514 44.2697 45.5914 42.7124L37.4414 44.8649C34.8808 45.6109 32.2757 46.1973 29.6414 46.6206L30.7514 51.5803C30.7514 51.6894 30.7514 51.7985 30.8214 51.9076C32.3341 52.881 33.9263 53.7271 35.5814 54.437C38 53.2902 40.3037 51.9185 42.4614 50.3403V50.3999C43.6094 49.3351 44.5843 48.1004 45.3514 46.7396V46.7396Z" fill="#E55645"/>
<path d="M32.0015 16.0891C31.9515 15.9899 33.0015 16.7636 33.4115 17.0016C33.8215 17.2397 34.0215 17.4182 34.0215 17.5869C34.0215 17.7555 33.7615 17.9241 33.4015 17.9241C33.0415 17.9241 32.4815 17.8051 32.4015 17.6662C32.3215 17.5274 33.0015 17.6662 33.3415 17.6662H33.6315C33.0158 17.2195 32.467 16.6885 32.0015 16.0891Z" fill="black"/>
<path d="M39.5018 16.1981C39.5018 16.1981 38.5018 17.4678 38.4118 17.5273C38.3218 17.5869 38.2418 17.8646 38.6018 17.815C39.0151 17.7538 39.423 17.661 39.8218 17.5373C39.9318 17.4777 39.8918 17.3389 39.7018 17.3587C39.5118 17.3785 39.0218 17.4083 38.7018 17.4678L39.5518 16.2081C39.5518 16.2081 39.5818 16.089 39.5018 16.1981Z" fill="black"/>
<path d="M36.3616 22.2589C36.8252 22.0564 37.2083 21.7077 37.4516 21.267C37.7316 20.6123 37.4516 20.3643 37.0116 20.2751C36.4063 20.1655 35.7816 20.2859 35.2616 20.6123C34.8716 20.9793 34.9216 21.3364 35.2616 21.6043C35.5994 21.867 35.9689 22.0869 36.3616 22.2589V22.2589Z" fill="black"/>
<path d="M36.0016 23.5088C35.8868 23.7338 35.7308 23.9356 35.5416 24.104C35.2568 24.3312 34.9067 24.4632 34.5416 24.4809C33.991 24.5345 33.4405 24.3785 33.0016 24.0444C32.8 23.9275 32.6206 23.7764 32.4716 23.5981C32.3715 23.49 32.2486 23.4053 32.1116 23.3501C32.1116 23.3501 32.8616 27.4269 34.6816 28.0816C36.5016 28.7363 36.8416 27.3277 36.8916 26.9508C36.9525 25.8219 36.6666 24.7012 36.0716 23.7369C36.0716 23.4394 36.0516 23.6378 36.0016 23.5088Z" fill="#F06351"/>
<path d="M34.3015 24.6396C33.8335 24.5729 33.384 24.4128 32.9801 24.169C32.5763 23.9252 32.2263 23.6028 31.9515 23.2212C31.9269 23.1939 31.9133 23.1586 31.9133 23.122C31.9133 23.0854 31.9269 23.0501 31.9515 23.0228C31.9646 23.0096 31.9801 22.9991 31.9973 22.992C32.0145 22.9848 32.0329 22.9811 32.0515 22.9811C32.0702 22.9811 32.0886 22.9848 32.1058 22.992C32.1229 22.9991 32.1385 23.0096 32.1515 23.0228C32.399 23.3672 32.7129 23.6594 33.0751 23.8824C33.4374 24.1055 33.8406 24.255 34.2615 24.3222C34.5945 24.2974 34.9168 24.1946 35.2019 24.0221C35.487 23.8497 35.7268 23.6126 35.9015 23.3303L36.0415 23.1418L36.1415 23.3601C36.1415 23.3601 36.5215 24.1139 37.1415 24.1536C37.7615 24.1933 38.2015 23.737 38.7715 22.874C38.7927 22.8424 38.8257 22.8205 38.8632 22.8131C38.9007 22.8056 38.9397 22.8133 38.9715 22.8343C39.0034 22.8554 39.0254 22.8881 39.0329 22.9253C39.0404 22.9625 39.0327 23.0011 39.0115 23.0327C38.3449 24.0048 37.7149 24.471 37.1215 24.4313C36.8922 24.4012 36.6726 24.3205 36.4788 24.1952C36.285 24.0699 36.1219 23.9032 36.0015 23.7072C35.8059 23.9782 35.5518 24.2026 35.2577 24.3639C34.9636 24.5252 34.6369 24.6194 34.3015 24.6396Z" fill="black"/>
<path d="M36.2617 37.991C38.3328 37.991 40.0117 36.3256 40.0117 34.2713C40.0117 32.2169 38.3328 30.5515 36.2617 30.5515C34.1907 30.5515 32.5117 32.2169 32.5117 34.2713C32.5117 36.3256 34.1907 37.991 36.2617 37.991Z" fill="#FDC305"/>
<path d="M41.2315 31.2458L38.1015 32.5453L39.2515 26.9607L31.7515 36.6419L34.8815 35.3425L33.7315 40.937L41.2315 31.2458ZM33.8415 35.0449L38.0015 29.6786L37.1915 33.6463L39.1915 32.8329L35.0015 38.2092L35.8115 34.2415L33.8415 35.0449Z" fill="#111111"/>
<path d="M32.4415 33.5867C33.0601 33.5867 33.5615 33.0893 33.5615 32.4757C33.5615 31.8621 33.0601 31.3647 32.4415 31.3647C31.823 31.3647 31.3215 31.8621 31.3215 32.4757C31.3215 33.0893 31.823 33.5867 32.4415 33.5867Z" fill="#111111"/>
<path d="M38.9619 37.6139C39.3982 37.6139 39.7519 37.263 39.7519 36.8303C39.7519 36.3975 39.3982 36.0466 38.9619 36.0466C38.5256 36.0466 38.1719 36.3975 38.1719 36.8303C38.1719 37.263 38.5256 37.6139 38.9619 37.6139Z" fill="#111111"/>
<path d="M39.922 35.4614C40.1153 35.4614 40.272 35.306 40.272 35.1143C40.272 34.9225 40.1153 34.7671 39.922 34.7671C39.7287 34.7671 39.572 34.9225 39.572 35.1143C39.572 35.306 39.7287 35.4614 39.922 35.4614Z" fill="#111111"/>
<path d="M45.8823 20.9892C44.0771 22.6033 42.3769 24.3294 40.7921 26.1571C39.2134 27.9717 37.4319 29.6023 35.4818 31.0176C35.2618 30.4919 33.8517 29.5099 33.8517 29.5099C33.8517 29.5099 30.7116 27.3772 28.6515 25.7008C27.5378 24.7808 26.4887 23.7866 25.5113 22.7251L23.5112 22.6159C26.3984 26.7991 30.6281 29.8897 35.5118 31.3846C36.3719 31.2457 38.792 29.5297 40.6021 28.1311C42.7436 26.3247 44.749 24.3653 46.6024 22.2688C47.1005 21.6815 47.4868 21.0093 47.7424 20.2849C46.6024 20.6618 45.8823 20.9892 45.8823 20.9892Z" fill="#F06351"/>
<path d="M65.2227 3.47176L56.7627 12.8356L55.5427 10.8616L63.6927 0L65.2227 3.47176Z" fill="#FDC305"/>
<path d="M62.6532 17.1206L68.1932 13.0438L67.4132 9.33398L62.0132 14.1052L62.6532 17.1206Z" fill="#FDC305"/>
<path d="M59.9229 48.9715L66.0529 52.1258L69.0628 49.8047L62.3729 47.0769L59.9229 48.9715Z" fill="#FDC305"/>
<path d="M1.94995 5.92175L5.01995 2.58887L14.31 11.5162L13.09 13.7778L1.94995 5.92175Z" fill="#FDC305"/>
<path d="M7.38003 16.1487L2.68003 13.0439L0.280029 16.8827L5.43003 19.2633L7.38003 16.1487Z" fill="#FDC305"/>
<path d="M13.9101 52.126L9.36011 55.4489L12.1601 59L16.1801 55.0125L13.9101 52.126Z" fill="#FDC305"/>
<path d="M25.9313 27.774C25.9313 27.774 22.1211 26.3456 20.721 25.9588C20.0636 25.6735 19.3377 25.5808 18.6289 25.6915C17.9201 25.8022 17.258 26.1118 16.7208 26.5837C16.1728 27.0596 15.7346 27.6471 15.4361 28.3061C15.1375 28.9651 14.9856 29.6802 14.9907 30.4026C15.2021 30.8636 15.3631 31.3458 15.4708 31.8409C15.5208 32.317 14.2707 32.2674 13.4707 32.2674C12.6706 32.2674 12.5506 30.8391 13.1807 29.1627C13.6722 27.8737 14.2814 26.6319 15.0007 25.4529C9.55047 28.27 0 34.777 0 34.777C2.73182 34.6136 5.47292 34.6933 8.1904 35.0151C13.4407 35.5408 13.1907 39.6474 13.1907 39.6474C15.0373 39.1424 16.9192 38.7744 18.8209 38.5464C20.941 38.4075 21.091 40.6493 21.091 40.6493L21.6211 44.4781C22.4259 43.6144 23.3134 42.8304 24.2712 42.1371C25.5057 41.1569 27.0776 40.6942 28.6514 40.8476V40.8476L25.9313 27.774Z" fill="#F06351"/>
</svg>
