<svg width="34" height="38" viewBox="0 0 34 38" fill="none" xmlns="http://www.w3.org/2000/svg">
<g clip-path="url(#clip0_15_1727)">
<path d="M6.07 20.72V18.46C12.7536 17.5423 19.4937 17.0979 26.24 17.13C26.24 17.73 26.24 18.34 26.18 18.95C28.0976 18.099 30.1128 17.4878 32.18 17.13C30.8625 13.722 28.4618 10.8412 25.3471 8.93089C22.2325 7.02054 18.5764 6.18643 14.9414 6.55686C11.3064 6.92729 7.89379 8.48175 5.22852 10.9811C2.56325 13.4805 0.792971 16.7863 0.190002 20.39L6.07 20.72Z" fill="#FDC305"/>
<path d="M27.24 24.2299C26.08 25.5099 25.85 25.4299 25.85 27.6799C25.85 28.5899 25.85 32.5799 25.85 36.8599C28.1425 35.3459 30.0245 33.2878 31.328 30.8693C32.6315 28.4508 33.3158 25.7473 33.32 22.9999C33.3068 21.959 33.1997 20.9215 33 19.8999C30.9282 21.1294 28.9967 22.5813 27.24 24.2299Z" fill="#FDC305"/>
<path d="M6.36 25.7201C6.36 25.7201 2.57 24.2801 1.17 23.8901C0.787067 23.7694 0.396097 23.6758 0 23.6101C0.108395 26.4961 0.965588 29.3042 2.48739 31.7587C4.00919 34.2132 6.14326 36.2297 8.68 37.6101L6.36 25.7201Z" fill="#FDC305"/>
<path d="M26.29 17.1199C26.3307 11.5986 25.862 6.08523 24.89 0.649943C24.89 0.649943 24.75 -0.640057 24 0.409943C23.4109 1.65808 23.0067 2.98533 22.8 4.34994C18.5418 4.07571 14.2675 4.18952 10.03 4.68994C9.24 1.99994 7.85 0.749943 7.18 0.999943C6.51 1.24994 6.46 4.30994 6.46 4.30994L6.13 18.4099C12.8113 17.506 19.548 17.0749 26.29 17.1199V17.1199Z" fill="#F06351"/>
<path d="M12.41 14C12.41 13.91 13.41 14.68 13.82 14.92C14.23 15.16 14.43 15.34 14.43 15.51C14.43 15.68 14.16 15.85 13.8 15.85C13.44 15.85 12.89 15.73 12.8 15.58H13.74H14.03C13.4207 15.1293 12.8757 14.5978 12.41 14V14Z" fill="black"/>
<path d="M19.89 14.1101L18.8 15.4401C18.8 15.5001 18.63 15.7901 18.98 15.7401C19.3942 15.6784 19.8023 15.5814 20.2 15.4501C20.31 15.4501 20.27 15.2601 20.09 15.2801C19.91 15.3001 19.4 15.3301 19.09 15.3901L19.93 14.1301C19.93 14.1301 20 14.0001 19.89 14.1101Z" fill="black"/>
<path d="M16.75 20.2001C17.2135 19.9959 17.5967 19.6444 17.84 19.2001C18.12 18.5501 17.84 18.2901 17.4 18.2001C16.7979 18.0903 16.1765 18.2117 15.66 18.5401C15.27 18.9001 15.32 19.2601 15.61 19.5401C15.9613 19.8063 16.3442 20.028 16.75 20.2001V20.2001Z" fill="black"/>
<path d="M16.35 21.4501C16.2379 21.6786 16.0816 21.8825 15.89 22.05C15.6052 22.2792 15.2551 22.4122 14.89 22.43C14.3638 22.472 13.8406 22.319 13.42 22C13.2222 21.8808 13.0436 21.7325 12.89 21.56C12.7895 21.4492 12.6669 21.3606 12.53 21.3C12.53 21.3 13.28 25.4 15.1 26.05C16.92 26.7 17.24 25.3 17.3 24.92C17.3601 23.7852 17.0742 22.6588 16.48 21.6901C16.46 21.3801 16.45 21.5801 16.35 21.4501Z" fill="#F06351"/>
<path d="M14.71 22.5901C14.2453 22.5248 13.7989 22.3652 13.3982 22.121C12.9975 21.8768 12.651 21.5532 12.38 21.1701C12.3667 21.1571 12.3561 21.1415 12.3489 21.1243C12.3417 21.1072 12.338 21.0887 12.338 21.0701C12.338 21.0515 12.3417 21.033 12.3489 21.0159C12.3561 20.9987 12.3667 20.9831 12.38 20.9701C12.393 20.9568 12.4086 20.9462 12.4258 20.939C12.4429 20.9318 12.4614 20.9281 12.48 20.9281C12.4986 20.9281 12.5171 20.9318 12.5342 20.939C12.5514 20.9462 12.567 20.9568 12.58 20.9701C13.0848 21.6643 13.843 22.1314 14.69 22.2701V22.2701C15.0217 22.2451 15.3426 22.1414 15.6261 21.9674C15.9096 21.7935 16.1475 21.5544 16.32 21.2701L16.46 21.0801L16.56 21.2901C16.56 21.2901 16.93 22.0501 17.56 22.0901C18.19 22.1301 18.61 21.6801 19.17 20.8101C19.183 20.7968 19.1986 20.7862 19.2158 20.779C19.2329 20.7718 19.2514 20.7681 19.27 20.7681C19.2886 20.7681 19.3071 20.7718 19.3242 20.779C19.3414 20.7862 19.357 20.7968 19.37 20.8101C19.4023 20.8307 19.4255 20.8629 19.4348 20.9001C19.4441 20.9373 19.4388 20.9767 19.42 21.0101C18.78 22.0101 18.15 22.4501 17.54 22.4101C17.308 22.3764 17.0867 22.2904 16.8927 22.1588C16.6987 22.0272 16.5371 21.8532 16.42 21.6501C16.2233 21.9246 15.9676 22.1515 15.6717 22.3142C15.3758 22.4768 15.0472 22.5711 14.71 22.5901V22.5901Z" fill="black"/>
<path d="M26.24 18.92C24.4445 20.5436 22.7512 22.277 21.17 24.11C19.5986 25.9361 17.8238 27.5767 15.88 29C15.66 28.47 14.26 27.49 14.26 27.49C14.26 27.49 11.13 25.35 9.08 23.67C7.97414 22.7373 6.9287 21.7353 5.95 20.67L3.95 20.56C6.84017 24.7655 11.0702 27.8675 15.95 29.36C16.81 29.22 19.22 27.5 21.02 26.1C23.1389 24.2818 25.124 22.3134 26.96 20.21C27.4625 19.621 27.8493 18.9424 28.1 18.21C27 18.6 26.24 18.92 26.24 18.92Z" fill="#F06351"/>
</g>
<defs>
<clipPath id="clip0_15_1727">
<rect width="33.32" height="37.61" fill="white"/>
</clipPath>
</defs>
</svg>
